<?xml version="1.0" encoding="UTF-8" standalone="no"?>
<!-- Created with Inkscape (http://www.inkscape.org/) -->

<svg
   xmlns:dc="http://purl.org/dc/elements/1.1/"
   xmlns:cc="http://creativecommons.org/ns#"
   xmlns:rdf="http://www.w3.org/1999/02/22-rdf-syntax-ns#"
   xmlns:svg="http://www.w3.org/2000/svg"
   xmlns="http://www.w3.org/2000/svg"
   xmlns:sodipodi="http://sodipodi.sourceforge.net/DTD/sodipodi-0.dtd"
   xmlns:inkscape="http://www.inkscape.org/namespaces/inkscape"
   version="1.1"
   id="svg2"
   xml:space="preserve"
   width="512.00055"
   height="512.00079"
   viewBox="0 0 512.00055 512.0008"
   sodipodi:docname="rspec-logo.svg"
   inkscape:version="0.92.4 (5da689c313, 2019-01-14)"><metadata
     id="metadata8"><rdf:RDF><cc:Work
         rdf:about=""><dc:format>image/svg+xml</dc:format><dc:type
           rdf:resource="http://purl.org/dc/dcmitype/StillImage" /><dc:title></dc:title></cc:Work></rdf:RDF></metadata><defs
     id="defs6"><clipPath
       clipPathUnits="userSpaceOnUse"
       id="clipPath102"><path
         d="M 0,488.218 H 488.218 V 0 H 0 Z"
         id="path100"
         inkscape:connector-curvature="0" /></clipPath></defs><sodipodi:namedview
     pagecolor="#ffffff"
     bordercolor="#666666"
     borderopacity="1"
     objecttolerance="10"
     gridtolerance="10"
     guidetolerance="10"
     inkscape:pageopacity="0"
     inkscape:pageshadow="2"
     inkscape:window-width="1916"
     inkscape:window-height="1032"
     id="namedview4"
     showgrid="false"
     inkscape:zoom="0.36254296"
     inkscape:cx="256.00054"
     inkscape:cy="256.00053"
     inkscape:window-x="0"
     inkscape:window-y="46"
     inkscape:window-maximized="0"
     inkscape:current-layer="g10" /><g
     id="g10"
     inkscape:groupmode="layer"
     inkscape:label="rspec-seeklogo.com"
     transform="matrix(1.3333333,0,0,-1.3333333,-69.478132,581.47892)"><g
       id="g12"
       transform="translate(300.279,243.0094)"><path
         d="m 0,0 -57.67,-103.811 38.75,102.331 0.59,1.57 z"
         style="fill:#ff496c;fill-opacity:1;fill-rule:nonzero;stroke:none"
         id="path14"
         inkscape:connector-curvature="0" /></g><g
       id="g16"
       transform="translate(255.2594,236.1286)"><path
         d="M 0,0 -0.12,-0.939 -12.65,-96.93 -25.19,-0.939 -25.311,0 h 12.661 z"
         style="fill:#ff496c;fill-opacity:1;fill-rule:nonzero;stroke:none"
         id="path18"
         inkscape:connector-curvature="0" /></g><g
       id="g20"
       transform="translate(203.8493,241.529)"><path
         d="M 0,0 38.76,-102.33 -18.92,1.48 -0.59,1.57 Z"
         style="fill:#ff496c;fill-opacity:1;fill-rule:nonzero;stroke:none"
         id="path22"
         inkscape:connector-curvature="0" /></g><g
       id="g24"
       transform="translate(184.029,242.5592)"><path
         d="m 0,0 0.44,-0.9 -31.91,5.44 -10.46,25.5 29.57,-5.36 0.24,-0.04 L -0.01,0 Z"
         style="fill:#ff496c;fill-opacity:1;fill-rule:nonzero;stroke:none"
         id="path26"
         inkscape:connector-curvature="0" /></g><g
       id="g28"
       transform="translate(216.9289,266.6388)"><path
         d="m 0,0 12.47,-31.54 -25.21,6.56 z"
         style="fill:#ff496c;fill-opacity:1;fill-rule:nonzero;stroke:none"
         id="path30"
         inkscape:connector-curvature="0" /></g><g
       id="g32"
       transform="translate(268.279,266.6388)"><path
         d="m 0,0 12.74,-24.98 -25.21,-6.56 z"
         style="fill:#ff496c;fill-opacity:1;fill-rule:nonzero;stroke:none"
         id="path34"
         inkscape:connector-curvature="0" /></g><g
       id="g36"
       transform="translate(343.109,272.5993)"><path
         d="m 0,0 -10.46,-25.5 -31.91,-5.44 0.44,0.9 h 0.01 l 12.11,24.64 0.24,0.04 z"
         style="fill:#ff496c;fill-opacity:1;fill-rule:nonzero;stroke:none"
         id="path38"
         inkscape:connector-curvature="0" /></g><g
       id="g40"
       transform="translate(286.9294,328.109)"><path
         d="m 0,0 26.279,-59.05 -44.189,-0.06 v 0.01 l 5.859,59.21 H 0 Z"
         style="fill:#ff496c;fill-opacity:1;fill-rule:nonzero;stroke:none"
         id="path42"
         inkscape:connector-curvature="0" /></g><g
       id="g44"
       transform="translate(216.1891,269.0089)"><path
         d="M 0,0 26.42,59.21 52.83,0 V -0.01 H 52.09 L 26.42,-0.05 0.74,-0.01 H 0 Z"
         style="fill:#ff496c;fill-opacity:1;fill-rule:nonzero;stroke:none"
         id="path46"
         inkscape:connector-curvature="0" /></g><g
       id="g48"
       transform="translate(216.1891,269.0089)"><path
         d="m 0,0 v -0.01 l -44.19,0.06 26.28,59.05 v 0.11 h 12.05 z"
         style="fill:#ff496c;fill-opacity:1;fill-rule:nonzero;stroke:none"
         id="path50"
         inkscape:connector-curvature="0" /></g><g
       id="g52"
       transform="translate(300.7389,241.6588)"><path
         d="M 0,0 31.91,5.44 -58.13,-102.46 -0.46,1.351 0.44,0.9 Z"
         style="fill:#fd405f;fill-opacity:1;fill-rule:nonzero;stroke:none"
         id="path54"
         inkscape:connector-curvature="0" /></g><g
       id="g56"
       transform="translate(281.359,241.529)"><path
         d="m 0,0 -38.75,-102.33 12.53,95.99 0.67,-0.09 25.21,6.56 z"
         style="fill:#fd405f;fill-opacity:1;fill-rule:nonzero;stroke:none"
         id="path58"
         inkscape:connector-curvature="0" /></g><g
       id="g60"
       transform="translate(230.069,235.1891)"><path
         d="M 0,0 12.54,-95.99 -26.22,6.34 -25.88,6.47 -0.67,-0.09 Z"
         style="fill:#fd405f;fill-opacity:1;fill-rule:nonzero;stroke:none"
         id="path62"
         inkscape:connector-curvature="0" /></g><g
       id="g64"
       transform="translate(184.9289,243.0094)"><path
         d="M 0,0 57.68,-103.811 -32.37,4.09 -0.46,-1.351 -0.9,-0.45 Z"
         style="fill:#fd405f;fill-opacity:1;fill-rule:nonzero;stroke:none"
         id="path66"
         inkscape:connector-curvature="0" /></g><g
       id="g68"
       transform="translate(216.1891,268.9992)"><path
         d="M 0,0 H 0.74 V -2.36 L -12,-27.34 l -0.34,-0.13 -0.59,1.57 -18.33,-0.09 -0.9,-0.45 h -0.01 l -12.11,24.64 -0.24,0.04 0.33,1.82 z"
         style="fill:#fd405f;fill-opacity:1;fill-rule:nonzero;stroke:none"
         id="path70"
         inkscape:connector-curvature="0" /></g><g
       id="g72"
       transform="translate(255.2594,236.1286)"><path
         d="m 0,0 h -12.65 -12.661 l 0.121,-0.939 -0.67,-0.09 -12.471,31.539 v 2.361 l 25.681,-0.04 25.67,0.04 V 30.51 L 0.55,-1.029 l -0.67,0.09 z"
         style="fill:#fd405f;fill-opacity:1;fill-rule:nonzero;stroke:none"
         id="path74"
         inkscape:connector-curvature="0" /></g><g
       id="g76"
       transform="translate(313.2086,269.0592)"><path
         d="M 0,0 0.33,-1.82 0.091,-1.86 -12.02,-26.5 h -0.009 l -0.901,0.45 -18.33,0.09 -0.59,-1.57 -0.339,0.13 -12.741,24.98 v 2.36 h 0.741 z"
         style="fill:#fd405f;fill-opacity:1;fill-rule:nonzero;stroke:none"
         id="path78"
         inkscape:connector-curvature="0" /></g><g
       id="g80"
       transform="translate(294.6989,328.2189)"><path
         d="m 0,0 49.86,-52.09 -1.45,-3.53 -29.57,-5.36 -0.33,1.82 -26.28,59.05 V 0 Z"
         style="fill:#fd405f;fill-opacity:1;fill-rule:nonzero;stroke:none"
         id="path82"
         inkscape:connector-curvature="0" /></g><g
       id="g84"
       transform="translate(274.8786,328.2189)"><path
         d="M 0,0 -5.859,-59.21 -32.27,0 Z"
         style="fill:#fd405f;fill-opacity:1;fill-rule:nonzero;stroke:none"
         id="path86"
         inkscape:connector-curvature="0" /></g><g
       id="g88"
       transform="translate(242.609,328.2189)"><path
         d="M 0,0 -26.42,-59.21 -32.28,0 Z"
         style="fill:#fd405f;fill-opacity:1;fill-rule:nonzero;stroke:none"
         id="path90"
         inkscape:connector-curvature="0" /></g><g
       id="g92"
       transform="translate(198.279,328.2189)"><path
         d="m 0,0 v -0.11 l -26.28,-59.05 -0.33,-1.82 -29.57,5.36 -1.45,3.53 L -7.77,0 Z"
         style="fill:#fd405f;fill-opacity:1;fill-rule:nonzero;stroke:none"
         id="path94"
         inkscape:connector-curvature="0" /></g><g
       id="g96"><g
         id="g98"
         clip-path="url(#clipPath102)"><g
           id="g104"
           transform="translate(436.109,244.109)"><path
             d="m 0,0 c 0,-25.1 -4.82,-49.08 -13.58,-71.05 l -0.04,0.02 -28.55,-5.68 -17.85,26.64 c 5.91,15.56 9.14,32.44 9.14,50.07 0,73.31 -55.89,133.56 -127.39,140.46 l 0.02,0.21 19.31,26.06 -14.6,24.39 C -76.16,181.84 0,99.81 0,0"
             style="fill:#96efff;fill-opacity:1;fill-rule:nonzero;stroke:none"
             id="path106"
             inkscape:connector-curvature="0" /></g><g
           id="g108"
           transform="translate(390.0192,156.9186)"><path
             d="M 0,0 27.91,5.551 C -2.771,-59.67 -69.07,-104.81 -145.91,-104.81 c -77.06,0 -143.51,45.39 -174.08,110.901 l 0.04,0.019 15.45,24.68 31.63,-5.29 h 0.01 c 22.88,-47.029 71.13,-79.43 126.95,-79.43 56.42,0 105.11,33.111 127.69,80.96 l 0.17,-0.08 z"
             style="fill:#6ce0f9;fill-opacity:1;fill-rule:nonzero;stroke:none"
             id="path110"
             inkscape:connector-curvature="0" /></g><g
           id="g112"
           transform="translate(246.8786,385.2292)"><path
             d="M 0,0 V -0.03 C -0.92,-0.01 -1.84,0 -2.77,0 c -77.939,0 -141.12,-63.18 -141.12,-141.12 0,-18.231 3.46,-35.64 9.75,-51.64 l -0.17,-0.07 -31.989,5.35 -15.111,-24.13 c -8.63,21.82 -13.36,45.6 -13.36,70.49 0,106.04 85.96,192 192,192 2.321,0 4.621,-0.04 6.92,-0.12 L 19.101,25.77 Z"
             style="fill:#40daf4;fill-opacity:1;fill-rule:nonzero;stroke:none"
             id="path114"
             inkscape:connector-curvature="0" /></g></g></g></g></svg>