<?xml version="1.0" encoding="UTF-8" standalone="no"?>
<svg
   xmlns:dc="http://purl.org/dc/elements/1.1/"
   xmlns:cc="http://creativecommons.org/ns#"
   xmlns:rdf="http://www.w3.org/1999/02/22-rdf-syntax-ns#"
   xmlns:svg="http://www.w3.org/2000/svg"
   xmlns="http://www.w3.org/2000/svg"
   xmlns:sodipodi="http://sodipodi.sourceforge.net/DTD/sodipodi-0.dtd"
   xmlns:inkscape="http://www.inkscape.org/namespaces/inkscape"
   aria-hidden="true"
   focusable="false"
   data-prefix="fas"
   data-icon="angle-down"
   class="svg-inline--fa fa-angle-down fa-w-10"
   role="img"
   viewBox="0 0 320 512"
   version="1.1"
   id="svg60"
   sodipodi:docname="angle-down-solid.svg"
   inkscape:version="0.92.4 (5da689c313, 2019-01-14)">
  <metadata
     id="metadata66">
    <rdf:RDF>
      <cc:Work
         rdf:about="">
        <dc:format>image/svg+xml</dc:format>
        <dc:type
           rdf:resource="http://purl.org/dc/dcmitype/StillImage" />
        <dc:title></dc:title>
      </cc:Work>
    </rdf:RDF>
  </metadata>
  <defs
     id="defs64" />
  <sodipodi:namedview
     pagecolor="#ffffff"
     bordercolor="#666666"
     borderopacity="1"
     objecttolerance="10"
     gridtolerance="10"
     guidetolerance="10"
     inkscape:pageopacity="0"
     inkscape:pageshadow="2"
     inkscape:window-width="1916"
     inkscape:window-height="1032"
     id="namedview62"
     showgrid="false"
     inkscape:zoom="26.46875"
     inkscape:cx="227.96519"
     inkscape:cy="335.8773"
     inkscape:window-x="0"
     inkscape:window-y="46"
     inkscape:window-maximized="0"
     inkscape:current-layer="svg60" />
  <path
     fill="currentColor"
     d="M143 352.3L7 216.3c-9.4-9.4-9.4-24.6 0-33.9l22.6-22.6c9.4-9.4 24.6-9.4 33.9 0l96.4 96.4 96.4-96.4c9.4-9.4 24.6-9.4 33.9 0l22.6 22.6c9.4 9.4 9.4 24.6 0 33.9l-136 136c-9.2 9.4-24.4 9.4-33.8 0z"
     id="path58" />
  <path
     style="fill:#55aaff;fill-opacity:0;stroke-width:0.60448641"
     d="m 153.67063,358.17793 c -1.51959,-0.40973 -3.96776,-1.46137 -5.44037,-2.33699 -1.52829,-0.90873 -33.19865,-32.1595 -73.788065,-72.81047 C 6.0229981,214.5075 3.2826876,211.678 2.0387974,208.27041 c -2.58235229,-7.07427 -2.26461461,-13.42058 1.0029996,-20.03334 2.2502102,-4.55381 28.257684,-30.35137 32.817729,-32.55284 7.062176,-3.40944 14.524985,-3.4013 21.418084,0.0234 2.378472,1.18168 13.893648,12.34925 52.75636,51.16383 l 49.7138,49.6522 49.72422,-49.62427 c 53.98653,-53.878 51.91527,-52.03762 60.21036,-53.49877 2.85423,-0.50276 4.7217,-0.48772 7.53504,0.0607 6.944,1.35366 9.39948,3.19602 24.49141,18.37612 16.907,17.00578 17.33158,17.68148 17.33158,27.58266 0,10.9947 6.39514,3.71231 -73.67361,83.89492 -38.60679,38.66168 -71.41825,71.07592 -72.91435,72.03165 -5.32073,3.39894 -12.60432,4.49692 -18.78179,2.83129 z"
     id="path68"
     inkscape:connector-curvature="0" />
  <path
     style="fill:#55aaff;fill-opacity:0;stroke-width:0.60448641"
     d="m 152.61238,357.77287 c -1.96865,-0.69891 -4.68884,-2.04676 -6.04487,-2.99521 -1.35602,-0.94845 -34.04557,-33.3677 -72.643427,-72.04279 C -5.8227697,202.82845 0.86083261,210.44837 0.84680067,199.42007 0.8341585,189.48404 1.2709259,188.78894 18.206869,171.79204 c 14.970704,-15.02459 17.491976,-16.92908 24.230476,-18.30296 4.081602,-0.83218 8.315164,-0.39939 13.107401,1.33994 3.108361,1.12818 6.589597,4.46656 53.505414,51.30973 27.59941,27.55667 50.44677,50.10304 50.77191,50.10304 0.32515,0 22.89895,-22.28008 50.16401,-49.51128 38.74901,-38.70091 50.23716,-49.84134 52.61541,-51.02292 6.8941,-3.42516 14.35891,-3.43283 21.41809,-0.022 4.84394,2.34047 30.53432,28.03085 32.87479,32.87479 3.29685,6.82334 3.41919,14.12995 0.34981,20.89263 -1.10183,2.42764 -14.20025,15.83943 -72.4337,74.16665 -79.82072,79.94925 -73.95302,74.6731 -83.59431,75.16674 -4.03375,0.20653 -5.73018,0.007 -8.60379,-1.0135 z"
     id="path875"
     inkscape:connector-curvature="0" />
  <path
     style="fill:#55aaff;fill-opacity:0;stroke-width:0.60448641"
     d="m 152.61238,357.77287 c -1.96865,-0.69891 -4.68884,-2.04676 -6.04487,-2.99521 -1.35602,-0.94845 -34.04557,-33.3677 -72.643427,-72.04279 C -5.8227697,202.82845 0.86083261,210.44837 0.84680067,199.42007 0.8341585,189.48404 1.2709259,188.78894 18.206869,171.79204 c 14.970704,-15.02459 17.491976,-16.92908 24.230476,-18.30296 4.081602,-0.83218 8.315164,-0.39939 13.107401,1.33994 3.108361,1.12818 6.589597,4.46656 53.505414,51.30973 27.59941,27.55667 50.44677,50.10304 50.77191,50.10304 0.32515,0 22.89895,-22.28008 50.16401,-49.51128 38.74901,-38.70091 50.23716,-49.84134 52.61541,-51.02292 6.8941,-3.42516 14.35891,-3.43283 21.41809,-0.022 4.84394,2.34047 30.53432,28.03085 32.87479,32.87479 3.29685,6.82334 3.41919,14.12995 0.34981,20.89263 -1.10183,2.42764 -14.20025,15.83943 -72.4337,74.16665 -79.82072,79.94925 -73.95302,74.6731 -83.59431,75.16674 -4.03375,0.20653 -5.73018,0.007 -8.60379,-1.0135 z"
     id="path877"
     inkscape:connector-curvature="0" />
  <path
     style="fill:#55aaff;fill-opacity:0;stroke-width:0.60448641"
     d="m 152.61238,357.77287 c -1.96865,-0.69891 -4.68884,-2.04676 -6.04487,-2.99521 -1.35602,-0.94845 -34.04557,-33.3677 -72.643427,-72.04279 C -5.8227697,202.82845 0.86083261,210.44837 0.84680067,199.42007 0.8341585,189.48404 1.2709259,188.78894 18.206869,171.79204 c 14.970704,-15.02459 17.491976,-16.92908 24.230476,-18.30296 4.081602,-0.83218 8.315164,-0.39939 13.107401,1.33994 3.108361,1.12818 6.589597,4.46656 53.505414,51.30973 27.59941,27.55667 50.44677,50.10304 50.77191,50.10304 0.32515,0 22.89895,-22.28008 50.16401,-49.51128 38.74901,-38.70091 50.23716,-49.84134 52.61541,-51.02292 6.8941,-3.42516 14.35891,-3.43283 21.41809,-0.022 4.84394,2.34047 30.53432,28.03085 32.87479,32.87479 3.29685,6.82334 3.41919,14.12995 0.34981,20.89263 -1.10183,2.42764 -14.20025,15.83943 -72.4337,74.16665 -79.82072,79.94925 -73.95302,74.6731 -83.59431,75.16674 -4.03375,0.20653 -5.73018,0.007 -8.60379,-1.0135 z"
     id="path879"
     inkscape:connector-curvature="0" />
  <path
     style="fill:#55aaff;fill-opacity:0.97487438;stroke-width:0.60448641"
     d="m 152.61238,357.77287 c -1.96865,-0.69891 -4.68884,-2.04676 -6.04487,-2.99521 -1.35602,-0.94845 -34.04557,-33.3677 -72.643427,-72.04279 C -5.8227697,202.82845 0.86083261,210.44837 0.84680067,199.42007 0.8341585,189.48404 1.2709259,188.78894 18.206869,171.79204 c 14.970704,-15.02459 17.491976,-16.92908 24.230476,-18.30296 4.081602,-0.83218 8.315164,-0.39939 13.107401,1.33994 3.108361,1.12818 6.589597,4.46656 53.505414,51.30973 27.59941,27.55667 50.44677,50.10304 50.77191,50.10304 0.32515,0 22.89895,-22.28008 50.16401,-49.51128 38.74901,-38.70091 50.23716,-49.84134 52.61541,-51.02292 6.8941,-3.42516 14.35891,-3.43283 21.41809,-0.022 4.84394,2.34047 30.53432,28.03085 32.87479,32.87479 3.29685,6.82334 3.41919,14.12995 0.34981,20.89263 -1.10183,2.42764 -14.20025,15.83943 -72.4337,74.16665 -79.82072,79.94925 -73.95302,74.6731 -83.59431,75.16674 -4.03375,0.20653 -5.73018,0.007 -8.60379,-1.0135 z"
     id="path881"
     inkscape:connector-curvature="0" />
  <path
     style="fill:#55aaff;fill-opacity:0.9748744;stroke-width:0.60448641"
     d="m 151.53295,356.95248 c -1.89741,-0.78036 -4.75361,-2.51994 -6.34711,-3.86574 C 139.88644,348.61113 9.9153793,217.92942 6.4829936,213.6255 1.2097992,207.01337 0.98170427,206.35959 1.2316328,198.57388 c 0.1951962,-6.0807 0.3786135,-6.9933 1.9560314,-9.73232 1.0463312,-1.81684 7.4351938,-8.71059 16.0169828,-17.28273 11.548585,-11.53561 14.949382,-14.58535 17.798836,-15.96155 6.845597,-3.30621 16.40627,-2.55524 21.846562,1.716 1.336938,1.04964 24.453129,23.73796 51.369315,50.41848 26.91618,26.68052 49.22943,48.51003 49.58498,48.51003 0.35556,0 22.82928,-21.97577 49.94162,-48.83504 27.11233,-26.85927 50.59325,-49.69487 52.17983,-50.74577 5.84461,-3.87132 14.37671,-4.16294 21.39168,-0.73117 3.47084,1.69796 5.99384,3.92625 17.70012,15.63253 11.77158,11.77158 13.92853,14.2169 15.65748,17.75081 1.53833,3.14429 2.0711,5.12578 2.28834,8.5108 0.40013,6.23483 -0.8879,10.24747 -4.82419,15.0289 -3.97628,4.83001 -123.87449,125.12525 -134.36752,134.81246 -4.31933,3.98763 -9.21567,8.03169 -10.88076,8.98679 -2.72357,1.56226 -3.57345,1.73568 -8.4678,1.72788 -4.31189,-0.007 -6.15597,-0.30298 -8.89019,-1.4275 z"
     id="path883"
     inkscape:connector-curvature="0" />
  <path
     style="fill:#55aaff;fill-opacity:0.9748744;stroke-width:0.1511216"
     d=""
     id="path885"
     inkscape:connector-curvature="0" />
  <path
     style="fill:#55aaff;fill-opacity:0.9748744;stroke-width:0.1511216"
     d=""
     id="path887"
     inkscape:connector-curvature="0" />
</svg>
